<svg width="1335" height="388" viewBox="0 0 1335 388" fill="none" xmlns="http://www.w3.org/2000/svg">
<path d="M107 151L9.37131 259.335" stroke="url(#paint0_linear_21_2085)" stroke-linecap="round"/>
<circle cx="9" cy="260" r="2" fill="#DDDDDD"/>
<path d="M1053 277L955.371 385.335" stroke="url(#paint1_linear_21_2085)" stroke-linecap="round"/>
<circle cx="955" cy="386" r="2" fill="#DDDDDD"/>
<path d="M728 33L630.371 141.335" stroke="url(#paint2_linear_21_2085)" stroke-linecap="round"/>
<circle cx="630" cy="142" r="2" fill="#DDDDDD"/>
<circle cx="367" cy="33" r="2" fill="#DDDDDD"/>
<circle cx="343" cy="84" r="2" fill="#DDDDDD"/>
<circle cx="110" cy="82" r="2" fill="#DDDDDD"/>
<circle cx="1147" cy="158" r="2" fill="#DDDDDD" fill-opacity="0.5"/>
<circle cx="374" cy="88" r="2" fill="#DDDDDD"/>
<circle cx="594" cy="2" r="2" fill="#DDDDDD"/>
<circle cx="92" cy="287" r="1" fill="#DDDDDD"/>
<circle cx="415" cy="98" r="1" fill="#DDDDDD"/>
<circle cx="635" cy="12" r="1" fill="#DDDDDD"/>
<circle cx="131.5" cy="321.5" r="1.5" fill="#DDDDDD"/>
<circle cx="454.5" cy="132.5" r="1.5" fill="#DDDDDD"/>
<circle cx="531.5" cy="27.5" r="1.5" fill="#DDDDDD"/>
<circle cx="113.5" cy="208.5" r="1.5" fill="#DDDDDD"/>
<circle cx="265.5" cy="72.5" r="1.5" fill="#DDDDDD"/>
<circle cx="8.5" cy="121.5" r="1.5" fill="#DDDDDD"/>
<circle cx="951.5" cy="166.5" r="1.5" fill="#DDDDDD"/>
<circle cx="741.5" cy="113.5" r="1.5" fill="#DDDDDD"/>
<circle cx="318.5" cy="18.5" r="1.5" fill="#DDDDDD"/>
<circle cx="61.5" cy="67.5" r="1.5" fill="#DDDDDD"/>
<circle cx="1004.5" cy="112.5" r="1.5" fill="#DDDDDD"/>
<circle cx="1040.5" cy="254.5" r="1.5" fill="#DDDDDD"/>
<circle cx="801.5" cy="99.5" r="1.5" fill="#DDDDDD"/>
<circle cx="1075.5" cy="109.5" r="1.5" fill="#DDDDDD"/>
<circle cx="1111.5" cy="251.5" r="1.5" fill="#DDDDDD"/>
<circle cx="872.5" cy="96.5" r="1.5" fill="#DDDDDD"/>
<circle cx="1122.5" cy="67.5" r="1.5" fill="#DDDDDD"/>
<circle cx="202.5" cy="79.5" r="1.5" fill="#DDDDDD"/>
<circle cx="21.5" cy="313.5" r="1.5" fill="#DDDDDD"/>
<circle cx="571.5" cy="93.5" r="1.5" fill="#DDDDDD"/>
<circle cx="599.5" cy="43.5" r="1.5" fill="#DDDDDD"/>
<circle cx="335.5" cy="42.5" r="1.5" fill="#999999"/>
<circle cx="78.5" cy="91.5" r="1.5" fill="#999999"/>
<circle cx="122.5" cy="33.5" r="1.5" fill="#999999"/>
<circle cx="641.5" cy="63.5" r="1.5" fill="#999999"/>
<circle cx="1040.5" cy="125.5" r="1.5" fill="#999999"/>
<circle cx="1076.5" cy="267.5" r="1.5" fill="#999999"/>
<circle cx="837.5" cy="112.5" r="1.5" fill="#999999"/>
<circle cx="130" cy="254" r="2" fill="#DDDDDD"/>
<circle cx="1143" cy="69" r="2" fill="#DDDDDD" fill-opacity="0.5"/>
<circle cx="1094" cy="86" r="2" fill="#DDDDDD"/>
<circle cx="1136" cy="216" r="2" fill="#DDDDDD" fill-opacity="0.5"/>
<circle cx="897" cy="61" r="2" fill="#DDDDDD"/>
<circle cx="174" cy="98" r="2" fill="#DDDDDD"/>
<circle cx="2" cy="331" r="2" fill="#DDDDDD"/>
<circle cx="1150" cy="118" r="2" fill="#DDDDDD" fill-opacity="0.5"/>
<circle cx="90" cy="379" r="2" fill="#DDDDDD"/>
<circle cx="93" cy="314" r="2" fill="#DDDDDD"/>
<circle cx="416" cy="125" r="2" fill="#DDDDDD"/>
<circle cx="636" cy="39" r="2" fill="#DDDDDD"/>
<circle cx="1111" cy="109" r="2" fill="#DDDDDD"/>
<circle cx="1152" cy="240" r="2" fill="#DDDDDD" fill-opacity="0.5"/>
<circle cx="915" cy="84" r="2" fill="#DDDDDD"/>
<circle cx="192" cy="121" r="2" fill="#DDDDDD"/>
<circle cx="11" cy="355" r="2" fill="#DDDDDD"/>
<defs>
<linearGradient id="paint0_linear_21_2085" x1="14.0004" y1="259" x2="97.0002" y2="161.5" gradientUnits="userSpaceOnUse">
<stop stop-color="white" stop-opacity="0.5"/>
<stop offset="1" stop-color="white" stop-opacity="0"/>
</linearGradient>
<linearGradient id="paint1_linear_21_2085" x1="960" y1="385" x2="1043" y2="287.5" gradientUnits="userSpaceOnUse">
<stop stop-color="white" stop-opacity="0.5"/>
<stop offset="1" stop-color="white" stop-opacity="0"/>
</linearGradient>
<linearGradient id="paint2_linear_21_2085" x1="635" y1="141" x2="718" y2="43.5002" gradientUnits="userSpaceOnUse">
<stop stop-color="white" stop-opacity="0.5"/>
<stop offset="1" stop-color="white" stop-opacity="0"/>
</linearGradient>
</defs>
</svg>
