<svg width="36" height="35" viewBox="0 0 36 35" fill="none" xmlns="http://www.w3.org/2000/svg">
<path d="M35.12 26.1731L35.0964 2.36651C35.0964 1.01763 34.2165 0.0710449 32.7899 0.0710449H8.8692C7.53762 0.0710449 6.63406 1.08862 6.63406 2.22452C6.63406 3.36042 7.65651 4.33067 8.77409 4.33067H17.0488L28.6525 3.95204L24.2298 7.80937L0.665785 31.3082C0.23778 31.7342 0 32.2785 0 32.7993C0 33.935 1.02245 35 2.21135 35C2.75824 35 3.28137 34.8105 3.70937 34.361L27.3209 10.8858L31.2442 6.46049L30.8162 17.5118V26.2676C30.8162 27.3799 31.7911 28.4212 32.9564 28.4212C34.0976 28.4212 35.12 27.4509 35.12 26.1731Z" fill="white"/>
</svg>
