<svg width="12" height="12" viewBox="0 0 12 12" fill="none" xmlns="http://www.w3.org/2000/svg">
<g clip-path="url(#clip0_125_441)">
<path d="M4.44546 11.9999C4.73864 11.9999 4.97045 11.8707 5.13409 11.6192L11.5773 1.50243C11.7 1.30526 11.7477 1.15569 11.7477 0.999315C11.7477 0.625375 11.5023 0.380615 11.1273 0.380615C10.8546 0.380615 10.7045 0.469001 10.5409 0.727357L4.41818 10.4565L1.24091 6.30924C1.07045 6.07127 0.899998 5.97609 0.654545 5.97609C0.265909 5.97609 0 6.24125 0 6.61518C0 6.77156 0.0681818 6.94833 0.197727 7.11147L3.73636 11.6055C3.94091 11.8707 4.15228 11.9999 4.44546 11.9999Z" fill="#454ADE"/>
</g>
<defs>
<clipPath id="clip0_125_441">
<rect width="12" height="12" fill="white"/>
</clipPath>
</defs>
</svg>
