<svg width="36" height="35" viewBox="0 0 36 35" fill="none" xmlns="http://www.w3.org/2000/svg">
<path d="M6.01919 35H29.2716C33.2972 35 35.2908 33.025 35.2908 29.1129V5.92513C35.2908 2.01302 33.2972 0.0379639 29.2716 0.0379639H6.01919C2.01278 0.0379639 0 1.99402 0 5.92513V29.1129C0 33.044 2.01278 35 6.01919 35ZM6.05753 31.9426C4.14059 31.9426 3.08628 30.936 3.08628 28.961V6.07705C3.08628 4.10201 4.14059 3.09549 6.05753 3.09549H29.2333C31.1311 3.09549 32.2045 4.10201 32.2045 6.07705V28.961C32.2045 30.936 31.1311 31.9426 29.2333 31.9426H6.05753Z" fill="white"/>
<path d="M8.51121 13.4454H18.1151V10.9387H8.51121C7.78276 10.9387 7.22685 11.5084 7.22685 12.192C7.22685 12.8947 7.78276 13.4454 8.51121 13.4454ZM20.7795 16.0282C22.9074 16.0282 24.6518 14.3 24.6518 12.1731C24.6518 10.0651 22.9074 8.33691 20.7795 8.33691C18.6518 8.33691 16.9074 10.0651 16.9074 12.1731C16.9074 14.3 18.6518 16.0282 20.7795 16.0282ZM20.7795 14.0721C19.7062 14.0721 18.8818 13.2365 18.8818 12.1731C18.8818 11.0906 19.7062 10.293 20.7795 10.293C21.8338 10.293 22.6773 11.0906 22.6773 12.1731C22.6773 13.2365 21.8338 14.0721 20.7795 14.0721ZM23.31 13.4454H26.8562C27.5081 13.4454 28.0831 12.8947 28.0831 12.192C28.0831 11.5084 27.5081 10.9387 26.8562 10.9387H23.31V13.4454ZM26.7797 21.1748H17.1949V23.6814H26.7797C27.5081 23.6814 28.0831 23.1118 28.0831 22.4281C28.0831 21.7255 27.5081 21.1748 26.7797 21.1748ZM14.5112 18.573C12.3834 18.573 10.639 20.3012 10.639 22.4472C10.639 24.5552 12.3834 26.2832 14.5112 26.2832C16.639 26.2832 18.3834 24.5552 18.3834 22.4472C18.3834 20.3012 16.639 18.573 14.5112 18.573ZM14.5112 20.548C15.5847 20.548 16.409 21.3836 16.409 22.4472C16.409 23.5105 15.5847 24.3273 14.5112 24.3273C13.4569 24.3273 12.6134 23.5105 12.6134 22.4472C12.6134 21.3836 13.4569 20.548 14.5112 20.548ZM12 21.1748H8.43453C7.78276 21.1748 7.22685 21.7255 7.22685 22.4281C7.22685 23.1118 7.78276 23.6814 8.43453 23.6814H12V21.1748Z" fill="white"/>
</svg>
