<svg width="25" height="36" viewBox="0 0 25 36" fill="none" xmlns="http://www.w3.org/2000/svg">
<path d="M4.01214 35.0532H20.3281C22.9494 35.0532 24.3403 33.6239 24.3403 30.801V18.4913C24.3403 15.6685 22.9494 14.2571 20.3281 14.2571H4.01214C1.39087 14.2571 0 15.6685 0 18.4913V30.801C0 33.6239 1.39087 35.0532 4.01214 35.0532ZM3.12054 15.6328H5.95578V9.59406C5.95578 5.09182 8.82667 2.69777 12.1612 2.69777C15.4957 2.69777 18.4022 5.09182 18.4022 9.59406V15.6328H21.2197V9.98711C21.2197 3.26949 16.8331 0 12.1612 0C7.50714 0 3.12054 3.26949 3.12054 9.98711V15.6328Z" fill="white"/>
</svg>
